<svg width="1386" height="629" viewBox="0 0 1386 629" fill="none" xmlns="http://www.w3.org/2000/svg">
<path d="M940.199 488.173V393.614L1145.73 69.7615H1229.76V198.127H1181.01L1060.73 388.714V392.634H1358.37V488.173H940.199ZM1182.48 571.463V459.266L1184.93 417.866V69.7615H1298.35V571.463H1182.48Z" fill="url(#paint0_linear_2166_1963)"/>
<path d="M692.321 583.712C648.552 583.712 610.827 573.341 579.144 552.601C547.461 531.696 523.045 501.728 505.897 462.696C488.749 423.5 480.257 376.384 480.42 321.347C480.584 266.31 489.158 219.602 506.142 181.224C523.29 142.681 547.624 113.366 579.144 93.2788C610.827 73.0278 648.552 62.9023 692.321 62.9023C736.089 62.9023 773.815 73.0278 805.498 93.2788C837.344 113.366 861.841 142.681 878.989 181.224C896.137 219.766 904.629 266.474 904.466 321.347C904.466 376.548 895.892 423.745 878.744 462.941C861.596 502.136 837.181 532.105 805.498 552.845C773.978 573.423 736.252 583.712 692.321 583.712ZM692.321 484.498C718.451 484.498 739.6 471.188 755.768 444.568C771.936 417.785 779.939 376.711 779.776 321.347C779.776 285.091 776.101 255.205 768.752 231.688C761.403 208.007 751.196 190.369 738.13 178.774C725.065 167.179 709.795 161.381 692.321 161.381C666.354 161.381 645.368 174.528 629.363 200.821C613.358 226.952 605.274 267.127 605.111 321.347C604.948 358.093 608.459 388.551 615.645 412.722C622.994 436.892 633.283 454.939 646.511 466.86C659.739 478.619 675.009 484.498 692.321 484.498Z" fill="url(#paint1_linear_2166_1963)"/>
<path d="M30.6875 488.173V393.614L236.219 69.7615H320.244V198.127H271.495L151.214 388.714V392.634H448.854V488.173H30.6875ZM272.964 571.463V459.266L275.414 417.866V69.7615H388.836V571.463H272.964Z" fill="url(#paint2_linear_2166_1963)"/>
<defs>
<linearGradient id="paint0_linear_2166_1963" x1="1029.13" y1="-33.2667" x2="1379.02" y2="-1.59667" gradientUnits="userSpaceOnUse">
<stop stop-color="#1684DB"/>
<stop offset="1" stop-color="#1466A7"/>
</linearGradient>
<linearGradient id="paint1_linear_2166_1963" x1="570.601" y1="-44.0498" x2="925.541" y2="-12.6655" gradientUnits="userSpaceOnUse">
<stop stop-color="#1684DB"/>
<stop offset="1" stop-color="#1466A7"/>
</linearGradient>
<linearGradient id="paint2_linear_2166_1963" x1="119.619" y1="-33.2667" x2="469.504" y2="-1.59668" gradientUnits="userSpaceOnUse">
<stop stop-color="#1684DB"/>
<stop offset="1" stop-color="#1466A7"/>
</linearGradient>
</defs>
</svg>
