<svg width="228" height="229" viewBox="0 0 228 229" fill="none" xmlns="http://www.w3.org/2000/svg">
<path d="M109.86 0.44725C103.358 2.10213 98.0588 7.64823 96.6783 14.223C96.4111 15.6096 96.1885 21.2898 96.1885 27.6857V38.8226L90.0877 39.9855C76.283 42.6244 72.765 42.9375 54.908 42.9375C39.6338 42.9375 38.1642 42.848 35.5369 42.043C33.1767 41.2826 31.44 41.1484 24.6713 41.1484C13.5384 41.1484 10.9556 42.043 8.32829 46.9182C5.38923 52.2853 7.61579 59.218 13.1377 61.7674C14.6963 62.483 16.1213 62.6172 24.4041 62.6172H33.8892L40.8806 67.4476C44.7103 70.1312 48.1392 72.457 48.4955 72.6807C48.8517 72.8596 56.7783 73.8883 66.0853 74.8723L83.0517 76.706L83.2744 99.6508C83.5416 125.726 83.0517 122.73 87.4603 125.324L89.5088 126.576V155.872V185.168H88.2174C86.3916 185.168 84.2095 186.018 83.7197 186.957C83.4525 187.404 83.2744 189.909 83.2744 192.503V197.244H80.3799C77.8416 197.244 77.3072 197.378 76.372 198.362L75.2588 199.436V213.122V226.808L76.372 227.882L77.4408 229H114.357C151.051 229 151.274 229 152.476 228.061L153.634 227.166V213.122V199.078L152.476 198.183C151.496 197.423 150.65 197.244 148.023 197.244H144.728V192.503C144.728 189.909 144.549 187.404 144.282 186.957C143.792 186.018 141.61 185.168 139.785 185.168H138.493V170.587C138.493 156.856 138.538 156.006 139.295 156.319C141.076 157.124 142.323 157.035 143.525 156.096L144.728 155.156L144.817 115.931L144.95 76.7508L161.961 74.917C175.32 73.441 179.195 72.8596 180.219 72.2334C180.887 71.7861 184.316 69.4603 187.789 67.0451L194.113 62.6172H203.598C211.881 62.6172 213.306 62.483 214.864 61.7674C220.386 59.218 222.613 52.2853 219.674 46.9182C217.046 42.043 214.463 41.1484 203.331 41.1484C196.562 41.1484 194.825 41.2826 192.465 42.043C189.838 42.848 188.368 42.9375 173.094 42.9375C155.237 42.9375 151.986 42.6691 137.959 39.9855L131.813 38.8226V27.6857C131.813 21.2898 131.591 15.6096 131.324 14.223C129.676 6.30643 122.996 0.58143 114.981 0.178891C113.11 0.0894379 110.795 0.223618 109.86 0.44725ZM117.163 7.69295C119.434 8.36385 122.239 10.8238 123.442 13.1049C123.931 14.1336 124.466 16.191 124.555 17.667C124.778 20.3506 124.778 20.3506 122.017 24.5549C119.968 27.6857 119.167 29.3406 118.899 31.1297C118.41 34.1711 117.875 35.1551 116.228 36.0049C114.58 36.8547 113.422 36.8547 111.774 36.0049C110.127 35.1551 109.592 34.1711 109.103 31.1297C108.835 29.3406 108.034 27.6857 105.985 24.5549C103.224 20.3506 103.224 20.3506 103.447 17.667C104.026 10.2871 110.438 5.63553 117.163 7.69295ZM106.074 40.7459C110.706 45.2185 118.187 44.7266 122.685 39.7172L124.688 37.4808V40.1197C124.688 44.5924 125.089 44.8607 134.931 46.6945C151.006 49.7359 151.541 49.7807 172.025 49.9596C189.615 50.1385 191.085 50.2279 190.862 50.8988C190.728 51.3014 190.417 52.9115 190.105 54.4322C189.615 57.1605 189.57 57.2053 186.631 59.1732C185.028 60.2914 182.089 62.3041 180.13 63.6459L176.567 66.1058L168.017 67.0451C163.297 67.5818 159.022 67.9844 158.443 67.9844C157.553 67.9844 157.553 67.8949 158.799 66.9557C164.455 62.7514 168.329 58.3682 168.329 56.266C168.329 54.6558 166.548 52.7773 164.989 52.7773C164.188 52.7773 162.674 53.8955 159.645 56.7133C155.059 61.0517 150.338 64.4062 143.258 68.4316C140.631 69.9076 138.493 71.4283 138.181 72.0545C137.736 72.8596 137.603 79.0766 137.603 97.5934V122.104H134.708H131.813V86.9484C131.813 61.0965 131.68 51.5697 131.279 50.8541C130.077 48.5283 127.583 48.081 125.802 49.8701C124.733 50.9435 124.688 51.1224 124.688 57.9209V64.8535H118.988C105.674 64.8535 97.1681 61.8121 88.9299 54.1639C84.6994 50.1832 83.6752 49.8254 81.6713 51.5697C79.9345 53.0904 80.0236 55.0584 81.8494 56.9369C83.2744 58.4129 83.2744 58.4576 83.2744 63.0197V67.6266L81.1814 66.3742C76.7728 63.8695 72.5424 60.6492 68.3564 56.7133C64.3931 53.001 63.9033 52.6879 62.6119 52.9562C60.9197 53.2693 59.6728 54.7006 59.6728 56.3107C59.6728 58.0551 62.1666 61.0965 66.6642 64.8535C68.9353 66.7767 70.0931 67.9844 69.6033 67.9844C69.158 67.9844 64.883 67.5818 60.1181 67.0451L51.4345 66.1058L48.0947 63.7801C37.5853 56.5791 38.4314 57.3842 37.8525 54.3428C37.5853 52.8668 37.2736 51.3014 37.14 50.8541C36.9174 50.1385 37.9416 50.0937 54.2845 50.0937C72.3197 50.0937 76.0603 49.8254 87.0595 47.8574C89.7314 47.3654 92.047 46.9629 92.2252 46.9629C92.3588 46.9629 93.2494 48.1705 94.14 49.6017C96.5892 53.6271 102.111 58.5471 106.52 60.7387C110.349 62.6172 116.539 64.2273 118.32 63.7353C119.79 63.3775 121.126 61.7226 121.126 60.3361C121.126 58.1892 119.924 57.2947 115.649 56.3555C109.548 55.0137 104.293 51.7486 101.31 47.3654C100.241 45.8894 100.107 45.4422 100.597 45.2633C100.953 45.1291 101.71 44.5924 102.289 44.0109C103.135 43.1611 103.313 42.4902 103.358 40.1644C103.358 37.3914 103.358 37.3467 104.115 38.4648C104.516 39.091 105.406 40.1197 106.074 40.7459ZM30.015 51.4803C30.4158 53.2246 30.7275 54.8348 30.7275 55.0584C30.7275 55.282 27.5213 55.4609 23.647 55.4609C16.8338 55.4609 16.4775 55.4162 15.3197 54.4322C14.1174 53.4035 13.7166 51.3014 14.5181 50.049C15.2752 48.7967 17.7244 48.3494 23.4244 48.3047H29.3025L30.015 51.4803ZM211.703 48.9308C214.285 50.0043 214.642 53.1351 212.326 54.7453C211.524 55.3267 210.01 55.4609 204.266 55.4609H197.185L197.408 54.4322C197.542 53.8955 197.898 52.2853 198.165 50.8541L198.655 48.3047H204.444C208.363 48.3047 210.678 48.4836 211.703 48.9308ZM92.3142 65.7033L93.5166 66.3295V80.15V93.9258H91.958H90.3994V79.3449C90.3994 71.3389 90.533 64.8535 90.7556 64.943C90.9338 65.0324 91.6017 65.3902 92.3142 65.7033ZM105.985 70.9363C107.767 71.3389 111.953 71.7414 116.806 71.8756L124.688 72.0992V99.606V127.068L125.802 128.142C126.826 129.215 127.138 129.26 132.259 129.26H137.603V138.026C137.603 143.259 137.424 146.703 137.202 146.614C136.935 146.524 126.336 140.218 113.6 132.614L90.3994 118.749V109.983V101.171L94.4072 100.993C97.8361 100.814 98.5486 100.679 99.5283 99.7402L100.642 98.7115V84.1754V69.6392L101.888 69.9523C102.556 70.0865 104.382 70.5338 105.985 70.9363ZM114.446 141.425L131.145 151.489L131.279 168.306L131.368 185.168H114.001H96.6338V158.064C96.6338 136.55 96.7674 131.004 97.2127 131.183C97.4799 131.317 105.273 135.924 114.446 141.425ZM137.603 194.784V197.244H120.725H103.803L102.601 198.273C100.953 199.749 100.953 201.896 102.601 203.372L103.803 204.4H125.178H146.509V213.122V221.844H114.446H82.3838V213.122V204.4H88.3955C94.2291 204.4 94.4963 204.356 95.5205 203.282C98.0142 200.822 96.1885 197.244 92.4033 197.244H90.3994V194.784V192.324H114.001H137.603V194.784Z" fill="#0A375A"/>
<path d="M104.292 141.918C103.312 142.946 103.312 143.08 103.312 162V181.098L104.47 181.993C106.073 183.29 107.81 183.2 109.146 181.769L110.215 180.606L110.348 162.671C110.393 152.786 110.348 144.243 110.215 143.662C109.547 140.934 106.118 139.95 104.292 141.918Z" fill="#0A375A"/>
<path d="M118.141 150.013L116.895 151.087V165.846V180.606L117.963 181.769C119.299 183.2 121.036 183.29 122.639 181.993L123.797 181.098V165.936V150.773L122.639 149.879C121.08 148.627 119.655 148.716 118.141 150.013Z" fill="#0A375A"/>
<path d="M158.576 9.88458C156.929 10.5555 156.35 11.6289 156.305 14.1783V16.5488H153.901C151.808 16.5488 151.362 16.7277 150.561 17.7117C148.245 20.6637 150.249 23.7051 154.524 23.7051H156.305V25.9414C156.305 27.7752 156.528 28.4461 157.419 29.2959C158.487 30.3693 159.957 30.6824 161.426 30.1457C162.495 29.7432 163.43 27.5516 163.43 25.4941V23.7051H165.479C167.126 23.7051 167.75 23.4814 168.863 22.3633C169.976 21.2004 170.154 20.7531 169.932 19.5455C169.531 17.4881 168.195 16.5488 165.612 16.5488H163.43V14.3572C163.43 10.958 161.159 8.85586 158.576 9.88458Z" fill="#0A375A"/>
<path d="M46.0908 108.462C45.2001 109.312 44.9775 109.982 44.9775 111.816V114.053H43.4634C41.415 114.053 39.2775 114.858 38.7431 115.842C38.1197 117.049 38.2087 119.062 39.0103 120.091C39.5001 120.717 40.3908 121.03 42.2166 121.209L44.7548 121.432L44.9775 123.982C45.2447 126.844 45.8681 127.784 47.9166 128.186C48.9853 128.365 49.5642 128.186 50.5439 127.381C51.5681 126.487 51.8353 125.816 52.0134 123.758L52.1916 121.209H54.1064C56.6892 121.209 57.3572 120.896 58.1587 119.375C59.4947 116.736 57.9361 114.634 54.4626 114.187L52.1916 113.918L51.9689 111.682C51.6126 107.836 48.4064 106.091 46.0908 108.462Z" fill="#0A375A"/>
<path d="M61.2752 134.224C60.1619 135.074 60.1174 135.343 60.1174 139.144V143.125H56.4213C53.3486 143.125 52.547 143.259 51.79 144.02C50.4986 145.227 50.1424 146.524 50.7658 148C51.4783 149.745 52.9033 150.281 56.7775 150.281H60.1174V154.083C60.1174 157.572 60.2064 158.019 61.2306 159.003C62.6111 160.434 64.1697 160.434 65.7728 159.048C66.9306 158.019 67.0197 157.661 67.1978 154.128L67.3314 150.281H70.8494C74.0111 150.281 74.5455 150.147 75.4806 149.163C76.1931 148.492 76.5939 147.553 76.5939 146.703C76.5939 145.853 76.1931 144.914 75.4806 144.243C74.5455 143.259 74.0111 143.125 70.8494 143.125H67.3314L67.1978 139.279C67.0197 135.745 66.9306 135.387 65.7728 134.359C64.2588 133.062 62.8338 132.972 61.2752 134.224Z" fill="#0A375A"/>
</svg>
