<svg width="48" height="48" viewBox="0 0 48 48" fill="none" xmlns="http://www.w3.org/2000/svg">
<g clip-path="url(#clip0_1319_980)">
<path d="M47.5 24C47.5 11.0213 36.9787 0.5 24 0.5C11.0213 0.5 0.5 11.0213 0.5 24C0.5 36.9787 11.0213 47.5 24 47.5C36.9787 47.5 47.5 36.9787 47.5 24Z" stroke="white"/>
<path fill-rule="evenodd" clip-rule="evenodd" d="M24.5104 20.796V22.493C24.8656 21.9515 25.3554 21.5116 25.9318 21.2164C26.5082 20.9212 27.1514 20.7808 27.7984 20.809C31.2534 20.809 32.0004 22.969 32.0004 25.779V31.5H28.8004V26.428C28.8004 25.218 28.5564 23.662 26.6724 23.662C24.8454 23.662 24.5334 24.979 24.5334 26.338V31.5H21.3434V20.796H24.5104ZM19.2004 18.106C19.2 18.423 19.106 18.7328 18.9302 18.9967C18.7545 19.2605 18.5047 19.4665 18.2124 19.589C17.9201 19.7105 17.5983 19.7423 17.2879 19.6803C16.9775 19.6183 16.6926 19.4654 16.4694 19.241C16.2457 19.0165 16.0935 18.7308 16.0318 18.42C15.97 18.1091 16.0016 17.787 16.1225 17.494C16.2433 17.2011 16.4481 16.9504 16.7111 16.7735C16.9741 16.5967 17.2835 16.5015 17.6004 16.5C17.8109 16.5001 18.0194 16.5418 18.2139 16.6226C18.4083 16.7035 18.5849 16.8219 18.7336 16.971C18.8822 17.1202 18.9999 17.2973 19.08 17.492C19.1601 17.6868 19.201 17.8954 19.2004 18.106Z" fill="white"/>
<path d="M19.2 20.8091H16V31.5001H19.2V20.8091Z" fill="white"/>
</g>
<defs>
<clipPath id="clip0_1319_980">
<rect width="48" height="48" fill="white"/>
</clipPath>
</defs>
</svg>
