<svg width="229" height="229" viewBox="0 0 229 229" fill="none" xmlns="http://www.w3.org/2000/svg">
<path d="M112.04 4.69623C111.011 5.68021 110.922 6.12748 110.922 9.92923V14.1335L109.58 14.6255C108.864 14.8939 108.059 15.6095 107.791 16.191C107.478 16.996 104.213 47.2312 104.213 49.6017C104.213 49.8701 103.81 50.0937 103.318 50.0937C102.781 50.0937 101.887 50.5857 101.306 51.2119C100.187 52.2853 100.187 52.4195 100.187 59.7546V67.1792L92.4944 76.4824C85.9196 84.399 84.5778 85.8302 83.5491 85.8302C82.3415 85.8749 82.2967 85.8302 82.2967 83.415C82.2967 81.3576 82.1178 80.7314 81.1786 79.8369C79.7473 78.3609 77.6899 78.3609 76.2586 79.8369C75.1405 80.9103 75.1405 80.9103 75.1405 90.5712C75.1405 98.9351 75.051 100.187 74.4696 100.187C74.067 100.187 73.262 100.679 72.6805 101.306L71.5624 102.379V130.602C71.5624 146.077 71.5176 158.779 71.4282 158.779C71.3835 158.779 69.9075 158.466 68.2079 158.108C63.9141 157.214 60.2913 157.259 56.1764 158.332C51.4354 159.54 47.7678 161.597 44.0108 165.13C41.0588 167.948 40.6563 168.172 38.8225 168.172C29.743 168.172 20.9766 175.283 18.5614 184.586C15.6542 195.723 22.7657 207.442 34.2157 210.438C36.4073 210.975 40.4327 211.109 57.7866 211.109H78.7186V217.147C78.7186 223.007 78.7633 223.275 79.8368 224.304C81.268 225.78 83.3254 225.78 84.7567 224.304L85.8749 223.23V209.991V196.797H114.5H143.125V209.991V223.23L144.243 224.304C145.674 225.78 147.732 225.78 149.163 224.304L150.281 223.23V204.624V186.062H152.741C154.798 186.062 155.425 185.884 156.319 184.944C157.437 183.871 157.437 183.737 157.437 175.999V168.172H167.188C177.698 168.172 180.069 167.814 183.379 165.712C185.883 164.146 188.612 160.747 189.685 157.929C190.982 154.53 190.759 148.805 189.193 145.809C187.091 141.738 183.558 138.652 179.577 137.489C177.475 136.908 177.207 136.684 176.088 134.359C174.568 131.272 170.99 127.426 167.68 125.279C165.488 123.803 162.357 122.64 158.69 121.88L157.437 121.656V111.995C157.437 102.379 157.437 102.379 156.319 101.306C155.738 100.679 154.933 100.187 154.53 100.187C153.949 100.187 153.859 98.9351 153.859 90.5712C153.859 80.9103 153.859 80.9103 152.741 79.8369C152.07 79.1212 151.131 78.7187 150.281 78.7187C149.431 78.7187 148.492 79.1212 147.821 79.8369C146.882 80.7314 146.703 81.3576 146.703 83.415C146.703 85.9197 146.703 85.9197 145.406 85.7855C144.377 85.696 142.767 84.0412 136.505 76.4824L128.812 67.3134V59.7994C128.812 52.4195 128.812 52.2853 127.694 51.2119C127.113 50.5857 126.218 50.0937 125.682 50.0937C125.19 50.0937 124.787 49.8701 124.787 49.6017C124.787 47.2312 121.522 16.996 121.209 16.191C120.94 15.6095 120.135 14.8939 119.42 14.6255L118.078 14.1335V9.92923C118.078 6.12748 117.989 5.68021 116.96 4.69623C116.289 3.9806 115.35 3.57806 114.5 3.57806C113.65 3.57806 112.711 3.9806 112.04 4.69623ZM114.947 22.0054C114.947 22.3185 115.573 28.5355 116.289 35.7812C117.005 43.0269 117.631 49.2439 117.631 49.5122C117.631 49.9148 116.691 50.0937 114.5 50.0937C112.308 50.0937 111.369 49.9148 111.369 49.5122C111.369 49.2439 111.995 43.0269 112.711 35.7812C113.426 28.5355 114.053 22.3185 114.053 22.0054C114.053 21.737 114.276 21.4687 114.5 21.4687C114.768 21.4687 114.947 21.737 114.947 22.0054ZM121.656 60.8281V64.4062H114.5H107.344V60.8281V57.2499H114.5H121.656V60.8281ZM129.17 78.7634L135.119 85.8749H114.5H93.9256L99.8295 78.7187L105.778 71.6072H114.5H123.222L129.17 78.7634ZM146.703 96.6093V100.187H114.5H82.2967V96.6093V93.0312H114.5H146.703V96.6093ZM150.281 143.125V178.906H114.5H78.7186V143.125V107.344H114.5H150.281V143.125ZM162.536 130.467C166.383 132.435 169.245 135.79 170.632 140.039C171.526 142.633 173.092 144.019 175.194 144.019C179.801 144.019 183.379 147.732 183.379 152.518C183.379 155.514 182.082 158.019 179.711 159.54L177.877 160.792L167.635 160.926L157.437 161.06V145.003V128.902L159.271 129.304C160.3 129.528 161.731 130.065 162.536 130.467ZM69.1024 165.801L71.3387 166.651L71.5624 175.507C71.786 184.139 71.8307 184.363 72.8594 185.213C73.5751 185.794 74.6038 186.062 76.3034 186.062H78.7186V195.008V203.998L57.1604 203.864L35.5575 203.729L33.5448 202.656C30.1456 200.867 28.4012 199.212 26.7911 196.26C25.4045 193.666 25.2704 193.129 25.2704 189.641C25.2704 186.152 25.4045 185.615 26.7911 183.021C28.4012 180.069 30.1903 178.369 33.5448 176.625C35.2444 175.775 36.2731 175.596 39.9854 175.552L44.4581 175.507L46.0235 173.539C49.8252 168.843 53.2692 166.427 57.9208 165.175C60.828 164.415 66.2399 164.728 69.1024 165.801ZM143.125 187.852V189.641H114.5H85.8749V187.852V186.062H114.5H143.125V187.852Z" fill="#0A375A"/>
<path d="M108.238 111.548C101.305 113.069 96.7876 115.529 91.6888 120.717C88.6921 123.714 87.4398 125.413 85.9638 128.365C83.1907 133.956 82.5198 136.953 82.5646 143.572C82.6093 148.358 82.7882 149.7 83.7722 152.741C85.4718 157.885 87.7976 161.642 91.9124 165.712C96.072 169.872 99.0687 171.75 104.525 173.673C108.103 174.926 108.998 175.06 114.052 175.06C120.672 175.105 123.713 174.434 129.17 171.661C140.396 166.07 147.463 153.546 146.568 140.844C145.987 132.928 142.945 126.397 137.086 120.538C130.869 114.321 124.429 111.459 115.841 111.146C112.844 111.012 110.116 111.19 108.238 111.548ZM122.595 119.51C129.259 121.97 133.955 126.084 136.863 132.122C143.616 146.167 136.728 162 121.656 167.099C118.033 168.351 110.295 168.217 106.717 166.92C98.7108 164.012 93.2542 158.377 90.5259 150.281C89.8997 148.492 89.6761 146.524 89.6761 143.125C89.6761 136.058 91.9124 130.512 96.6534 125.682C100.232 122.059 104.704 119.599 109.803 118.481C112.934 117.81 119.33 118.347 122.595 119.51Z" fill="#0A375A"/>
<path d="M112.04 122.774L110.922 123.848V134.18V144.512L112.04 145.585C113.069 146.658 113.292 146.703 119.867 146.703C126.442 146.703 126.666 146.658 127.694 145.585C129.17 144.154 129.17 142.096 127.694 140.665C126.71 139.636 126.263 139.547 122.327 139.547H118.078V131.72C118.078 123.982 118.078 123.848 116.96 122.774C116.289 122.059 115.35 121.656 114.5 121.656C113.65 121.656 112.711 122.059 112.04 122.774Z" fill="#0A375A"/>
<path d="M170.497 14.7595C165.89 15.9671 162.222 18.0693 158.51 21.5579C155.558 24.3757 155.156 24.5994 153.322 24.5994C144.287 24.5994 135.476 31.7109 133.061 40.9245C130.109 52.3746 137.802 64.6296 149.52 67.0896C151.175 67.4027 160.21 67.5369 178.279 67.4474L204.668 67.3132L208.067 65.6583C212.137 63.6456 214.642 61.0515 216.61 56.8919C217.907 54.1636 218.041 53.4927 218.041 49.6462C218.041 45.7997 217.907 45.1288 216.61 42.4005C215.849 40.7456 214.373 38.5093 213.345 37.3912C211.422 35.289 206.01 32.2029 204.221 32.2029C202.834 32.2029 202.566 31.8451 200.866 28.4011C198.674 23.9732 193.665 19.0533 189.192 16.8169C183.154 13.865 176.624 13.1494 170.497 14.7595ZM181.813 21.6474C188.745 23.4812 194.739 29.3851 196.125 35.6468C196.528 37.5253 198.272 38.9119 200.285 38.9119C205.92 38.9119 211.108 44.0554 211.108 49.6462C211.108 53.8953 207.486 58.7705 203.505 59.8886C201.984 60.2912 195.275 60.3806 175.774 60.2912L150.057 60.157L147.239 58.6363C144.108 56.9367 142.722 55.5054 140.977 52.1509C139.993 50.2277 139.814 49.2884 139.814 46.0681C139.77 42.5794 139.904 42.0427 141.29 39.4486C142.9 36.4966 144.689 34.797 148.044 33.0527C149.744 32.2029 150.772 32.024 154.485 31.9792L158.957 31.9345L160.299 30.1902C166.158 22.6761 173.985 19.5453 181.813 21.6474Z" fill="#0A375A"/>
<path d="M97.7275 205.071C96.6094 206.145 96.6094 206.234 96.6094 214.687C96.6094 223.141 96.6094 223.23 97.7275 224.304C99.1588 225.78 101.216 225.78 102.647 224.304C103.766 223.23 103.766 223.141 103.766 214.687C103.766 206.234 103.766 206.145 102.647 205.071C101.977 204.356 101.037 203.953 100.187 203.953C99.3377 203.953 98.3984 204.356 97.7275 205.071Z" fill="#0A375A"/>
<path d="M112.04 205.071C110.922 206.145 110.922 206.234 110.922 214.688C110.922 223.141 110.922 223.23 112.04 224.304C112.711 225.019 113.65 225.422 114.5 225.422C115.35 225.422 116.289 225.019 116.96 224.304C118.078 223.23 118.078 223.141 118.078 214.688C118.078 206.234 118.078 206.145 116.96 205.071C116.289 204.356 115.35 203.953 114.5 203.953C113.65 203.953 112.711 204.356 112.04 205.071Z" fill="#0A375A"/>
<path d="M126.353 205.071C125.234 206.145 125.234 206.234 125.234 214.687C125.234 223.141 125.234 223.23 126.353 224.304C127.784 225.78 129.841 225.78 131.272 224.304C132.391 223.23 132.391 223.141 132.391 214.687C132.391 206.234 132.391 206.145 131.272 205.071C130.602 204.356 129.662 203.953 128.812 203.953C127.963 203.953 127.023 204.356 126.353 205.071Z" fill="#0A375A"/>
</svg>
