<svg width="229" height="229" viewBox="0 0 229 229" fill="none" xmlns="http://www.w3.org/2000/svg">
<path d="M108.327 0.670902C102.155 2.0127 95.4459 6.3959 91.7783 11.45L89.6762 14.3125H72.859C56.9363 14.3125 55.9523 14.3572 54.9684 15.1623L53.8949 16.0121L53.7607 33.0529L53.6266 50.0938H48.0805C42.0871 50.0938 40.6559 50.4516 39.8508 52.1959C39.5377 52.8221 39.3588 56.1766 39.3588 60.6045V67.9844H33.768C27.9088 67.9844 25.8961 68.4764 25.3147 69.9971C25.1805 70.3996 25.0463 74.1566 25.0463 78.3162V85.875H22.9889C18.6951 85.875 16.6377 88.6033 18.8293 91.4211C19.6344 92.4498 20.0816 92.584 22.4074 92.584H25.0463V159.674V226.808L26.1645 227.882L27.2379 229H56.9363C86.1875 229 86.6795 229 87.7977 228.105L88.9606 227.166L89.0947 179.443C89.2289 134.493 89.2736 131.586 90.0787 129.26C93.0307 120.449 99.3818 114.142 107.746 111.638C110.966 110.698 118.033 110.698 121.253 111.638C129.617 114.142 135.968 120.449 138.92 129.26C139.725 131.586 139.77 134.448 139.904 179.443L140.038 227.166L141.201 228.105C142.319 229 142.811 229 172.062 229H201.761L202.834 227.882L203.953 226.808V159.674V92.584H206.591C208.917 92.584 209.364 92.4498 210.17 91.4211C211.243 90.0793 211.332 89.4979 210.617 87.9772C209.991 86.5459 208.425 85.875 205.965 85.875H203.953V78.4951C203.953 74.0672 203.774 70.7127 203.461 70.0865C202.655 68.3422 201.224 67.9844 195.231 67.9844H189.64V60.6045C189.64 56.1766 189.461 52.8221 189.148 52.1959C188.343 50.4516 186.912 50.0938 180.918 50.0938H175.372L175.238 33.0529L175.104 16.0121L174.03 15.1623C173.046 14.3572 172.062 14.3125 156.14 14.3125H139.278L137.399 11.6289C131.138 2.81778 119.24 -1.69961 108.327 0.670902ZM118.57 7.15625C121.745 7.7377 126.799 10.2871 129.036 12.3893L130.825 14.0889L122.64 14.2231C118.167 14.2678 110.832 14.2678 106.314 14.2231L98.1742 14.0889L99.9633 12.3893C102.065 10.3766 107.209 7.7377 110.027 7.20098C112.845 6.66426 115.752 6.61953 118.57 7.15625ZM168.619 35.5576V50.0938H114.499H60.3803V35.5576V21.0215H114.499H168.619V35.5576ZM182.931 62.3488V67.8949L176.625 68.0738C170.631 68.208 170.273 68.2527 169.468 69.2814C168.35 70.6232 168.395 72.6807 169.513 73.7988C170.363 74.6486 170.989 74.6934 183.826 74.6934H197.244V80.2842V85.875H114.499H31.7553V80.2842V74.6934H94.5514H157.392L158.287 73.5305C158.823 72.8596 159.226 72.0545 159.226 71.7414C159.226 70.5785 158.197 68.9684 157.124 68.4764C156.363 68.1186 140.396 67.9844 101.081 67.9844H46.0678V62.3936V56.8027H114.499H182.931V62.3488ZM67.9838 110.922V129.26L50.0037 129.17L31.9789 129.036L31.8447 110.788L31.7553 92.584H49.8695H67.9838V110.922ZM154.082 110.922V129.036L150.012 129.17L145.942 129.304L144.913 126.174C143.527 121.88 140.575 116.96 137.399 113.74C131.004 107.254 123.624 104.168 114.455 104.168C104.838 104.168 96.251 108.104 89.9893 115.484C87.5293 118.391 84.5326 124.027 83.6381 127.381L83.1461 129.304L79.0313 129.17L74.9164 129.036L74.7822 111.369C74.7375 101.663 74.7822 93.4338 74.9164 93.1207C75.0506 92.6734 83.2355 92.584 114.589 92.6734L154.082 92.8076V110.922ZM197.154 110.788L197.02 129.036L179.04 129.17L161.015 129.26V110.922V92.584H179.129H197.244L197.154 110.788ZM67.9838 143.349V150.729H49.8695H31.7553V143.349V135.969H49.8695H67.9838V143.349ZM82.2963 143.349V150.773L78.6287 150.639L74.9164 150.505L74.7822 143.214L74.6928 135.969H78.4945H82.2963V143.349ZM154.217 143.214L154.082 150.505L150.415 150.639L146.703 150.773V143.349V135.969H150.504H154.306L154.217 143.214ZM197.244 143.349V150.729H179.129H161.015V143.349V135.969H179.129H197.244V143.349ZM67.9838 177.341V197.244H49.8695H31.7553V177.341V157.438H49.8695H67.9838V177.341ZM82.2963 177.341V197.244H78.4945H74.6928V177.341V157.438H78.4945H82.2963V177.341ZM154.306 177.341V197.244H150.504H146.703V177.341V157.438H150.504H154.306V177.341ZM197.244 177.341V197.244H179.129H161.015V177.341V157.438H179.129H197.244V177.341ZM67.9838 213.122V222.291H49.8695H31.7553V213.122V203.953H49.8695H67.9838V213.122ZM82.2963 213.122V222.291H78.4945H74.6928V213.122V203.953H78.4945H82.2963V213.122ZM154.306 213.122V222.291H150.504H146.703V213.122V203.953H150.504H154.306V213.122ZM197.244 213.122V222.291H179.129H161.015V213.122V203.953H179.129H197.244V213.122Z" fill="#0A375A"/>
<path d="M76.0345 25.4492C71.1146 27.0594 68.2968 30.727 68.2521 35.5574C68.2074 44.6817 78.6734 49.4227 85.5613 43.3846C88.2001 41.0141 89.1841 38.5541 88.9158 34.7076C88.6921 31.1742 87.1714 28.6695 84.0406 26.7016C81.849 25.3598 78.0919 24.7783 76.0345 25.4492ZM80.4624 32.4266C81.1781 32.7844 81.849 33.4106 82.0279 33.7684C83.5039 37.6149 79.5232 40.9246 76.3476 38.4647C74.2007 36.7651 74.5138 33.5447 76.929 32.3371C78.3603 31.6215 78.9417 31.6215 80.4624 32.4266Z" fill="#0A375A"/>
<path d="M94.9091 25.5836C93.2989 26.3887 92.9411 28.625 93.12 36.81C93.2542 44.1004 93.2989 44.3688 94.3276 45.2186C95.3116 46.0236 96.3403 46.0684 114.499 46.0684C132.658 46.0684 133.687 46.0236 134.671 45.2186C135.7 44.3688 135.744 44.1004 135.879 36.81C136.057 28.4014 135.7 26.3887 133.955 25.5836C132.39 24.868 96.385 24.868 94.9091 25.5836ZM129.17 35.6471L129.304 39.3594H114.499H99.7395V35.8707C99.7395 33.9475 99.8737 32.2031 100.053 32.0689C100.232 31.89 106.806 31.8006 114.678 31.8453L129.035 31.9795L129.17 35.6471Z" fill="#0A375A"/>
<path d="M146.971 25.6729C142.633 27.2831 139.994 31.0401 139.994 35.5127C139.994 39.0014 141.068 41.3719 143.572 43.5188C150.46 49.378 160.792 44.5922 160.747 35.5575C160.703 32.6502 159.897 30.5928 157.929 28.4907C155.335 25.6282 150.415 24.3758 146.971 25.6729ZM153.144 33.0975C154.53 34.4393 154.351 36.9887 152.786 38.2858C150.326 40.4327 146.703 38.8672 146.703 35.6469C146.703 32.203 150.684 30.6376 153.144 33.0975Z" fill="#0A375A"/>
<path d="M47.275 100.814C44.5914 101.529 42.1314 103.497 40.7002 106.047C39.2242 108.686 39.1795 112.979 40.566 115.663C42.4892 119.286 45.8885 121.298 50.1375 121.254C55.8625 121.254 60.3799 116.692 60.3799 110.922C60.3799 104.079 53.8945 99.0693 47.275 100.814ZM52.7763 108.596C54.6996 110.967 53.1789 114.5 50.2717 114.5C48.1695 114.5 47.1855 113.919 46.5146 112.264C44.9492 108.417 50.2269 105.286 52.7763 108.596Z" fill="#0A375A"/>
<path d="M177.116 100.59C174.969 101.037 173.135 102.066 171.436 103.855C165.219 110.34 169.87 121.209 178.86 121.254C185.077 121.298 189.371 117.049 189.371 110.922C189.371 108.82 189.103 107.523 188.432 106.181C186.285 102.111 181.454 99.7401 177.116 100.59ZM182.304 109.222C183.646 111.816 181.946 114.5 178.95 114.5C175.819 114.5 174.253 111.056 176.221 108.551C177.832 106.494 181.097 106.852 182.304 109.222Z" fill="#0A375A"/>
</svg>
