<svg width="228" height="228" viewBox="0 0 228 228" fill="none" xmlns="http://www.w3.org/2000/svg">
<path d="M67.7759 0.578914C63.679 2.09298 61.2743 5.70001 61.2743 10.3313V13.3594H59.6267C57.3111 13.3594 56.554 13.7602 55.8861 15.2297C55.4407 16.343 55.5743 17.7234 56.6431 23.9578C57.8454 30.9047 58.0236 31.4836 59.2259 32.5524C60.4728 33.5766 60.5618 33.9328 60.5618 36.6938C60.5618 38.3859 60.8736 40.3899 61.2743 41.325C62.0759 43.2844 64.2134 45.6 65.8611 46.3125C66.9743 46.7578 67.4196 47.9156 71.8282 62.2547C74.4556 70.7602 76.5931 77.8852 76.5931 78.0633C76.5931 78.2414 75.3907 79.8 73.9212 81.5367C72.2736 83.4516 71.2493 85.0547 71.2493 85.6781C71.2493 86.257 73.1642 93.6938 75.4798 102.155L79.7548 117.607L78.7751 118.943C77.6618 120.546 76.5931 123.841 76.5931 125.756C76.5931 126.513 77.2165 128.829 77.929 130.877C78.6415 132.926 79.1759 134.752 79.0423 134.93C78.9532 135.063 78.6415 139.427 78.3743 144.593C77.3946 162.673 79.265 187.744 83.4509 212.726L84.8759 221.32H75.0345C65.2821 221.32 65.1486 221.32 64.2134 222.345C62.922 223.725 62.922 225.773 64.2579 227.02L65.2821 228H114.623H163.919L164.988 226.887C166.413 225.506 166.413 223.814 164.988 222.434L163.919 221.32H149.936H135.998L136.799 216.734C137.957 210.41 140.451 192.642 141.431 184.359C141.831 180.574 142.41 177.234 142.677 176.967C142.945 176.7 145.171 175.765 147.62 174.83C150.07 173.895 152.519 172.826 153.098 172.47C155.102 171.223 155.057 170.51 152.074 158.086L149.313 146.374L160.624 131.234C166.858 122.862 172.113 115.648 172.291 115.158C173.092 113.02 172.424 112.263 162.449 104.827C152.207 97.1672 151.183 96.6328 149.268 98.2805C148.823 98.7258 146.641 101.487 144.503 104.426L140.54 109.77L139.338 104.559C137.957 98.7703 136.532 95.4305 134.172 92.3133C132.613 90.3094 132.613 90.2203 133.326 89.107C135.285 86.1234 135.597 84.8766 135.597 80.3344C135.597 75.8367 135.597 75.8367 133.415 71.4281C130.877 66.3961 130.743 64.793 132.391 60.4734L133.37 57.8906H137.957C142.232 57.8906 142.633 57.8016 143.613 56.7773C145.038 55.3969 145.038 53.7047 143.613 52.3242C142.633 51.3 142.232 51.2109 138.18 51.2109H133.816L132.658 48.6281L131.5 46.0898L135.686 41.8148C138.091 39.2766 139.827 37.1836 139.827 36.6492C139.827 35.0016 138.135 33.3984 136.399 33.3984C135.018 33.3984 134.306 33.8883 130.743 37.3172L126.691 41.2805L124.242 40.0336C122.906 39.3656 121.035 38.6531 120.145 38.5195L118.452 38.2078V32.9086C118.452 28.1883 118.363 27.5203 117.562 26.7188C116.359 25.5164 113.866 25.5164 112.663 26.8078C111.862 27.6539 111.773 28.3664 111.773 32.9977V38.2078L110.125 38.5195C109.19 38.6977 107.32 39.3656 105.939 40.0781L103.401 41.325L99.4821 37.3617C95.9642 33.8438 95.3407 33.3984 93.9157 33.3984C91.9564 33.3984 90.7095 34.6453 90.7095 36.5602C90.7095 37.6734 91.422 38.6531 94.7173 41.993L98.7251 46.0898L97.5673 48.6281L96.4095 51.2109H92.6243H88.8392L85.5439 42.2156C83.4509 36.4711 82.4712 33.1313 82.7829 33.0422C83.8071 32.6859 84.5196 30.3703 85.722 23.5125C87.1025 15.7195 87.0134 14.6953 84.7423 13.7156C84.0298 13.4039 83.4064 13.1367 83.3173 13.0922C83.2282 13.0031 83.5845 12.3797 84.1189 11.6672C85.722 9.3961 87.7259 4.72032 87.7259 3.25079C87.7259 2.2711 87.3696 1.5586 86.5681 0.935164C85.4548 0.0445389 84.8314 7.62939e-06 77.3056 0.0445389C72.3181 0.0445389 68.7111 0.267195 67.7759 0.578914ZM78.5079 8.06016C78.0181 8.77266 76.8603 10.2867 75.9696 11.4C74.322 13.3594 74.322 13.3594 71.4275 13.3594C68.2212 13.3594 67.954 13.1367 67.954 10.0641C67.9095 7.2586 69.0673 6.67969 74.6782 6.67969H79.354L78.5079 8.06016ZM79.265 21.6867C79.0868 22.6219 78.7751 24.1359 78.6415 25.0266L78.3298 26.7188H71.0712H63.8126L63.5009 24.3586C63.3228 23.1117 63.0556 21.5977 62.922 21.0188L62.6993 20.0391H71.1603H79.6212L79.265 21.6867ZM76.3259 36.382C76.9493 38.0742 79.6657 45.3773 82.3376 52.725L87.2806 66.0398L84.6978 69.068C83.3173 70.7156 82.0259 71.9625 81.8923 71.7844C81.7587 71.6063 79.5767 64.8375 77.1275 56.7773C74.1884 47.2922 72.3181 41.8594 71.8282 41.5031C71.3829 41.1914 70.5368 40.7906 69.9134 40.657C67.7759 40.1672 67.2415 39.2766 67.2415 36.2039V33.3984H71.2048H75.1681L76.3259 36.382ZM119.254 45.1992C124.063 46.6242 127.626 50.8992 127.225 54.6844C126.913 57.4898 126.513 57.7125 123.974 56.4211C121.926 55.3969 121.169 54.7289 117.651 50.8547C115.781 48.8953 114.267 48.9398 112.485 51.0773C110.036 53.9719 108.522 55.2633 106.295 56.4211C103.579 57.757 103.089 57.4008 103.089 54.15C103.178 47.4703 111.461 42.8836 119.254 45.1992ZM97.879 60.4734C98.4134 61.8984 98.8587 63.7242 98.8587 64.5703C98.8587 69.2906 102.065 77.618 105.271 81.3586C107.008 83.3625 111.639 85.9453 113.465 85.9453C114.578 85.9453 118.542 88.1719 118.319 88.6617C118.052 89.3742 96.6321 105.005 96.6321 104.515C96.6321 104.203 97.5673 99.9281 98.6806 95.0742C101.13 84.3422 101.174 83.8969 99.5712 82.5164C98.0571 81.225 96.9884 81.225 95.5634 82.4719C94.5392 83.3625 94.0493 85.1438 91.2884 97.3008C88.4829 109.68 88.0376 111.195 87.0134 112.13C86.3454 112.709 85.6775 113.02 85.4993 112.798C85.1876 112.441 78.3743 87.7711 78.3743 86.9695C78.3743 86.7469 81.4915 82.9617 85.3212 78.5531C89.1509 74.1891 92.7579 69.9141 93.3814 69.157C94.7173 67.4203 94.6728 66.7523 92.7134 61.5422L91.3329 57.8906H94.0939H96.8548L97.879 60.4734ZM122.549 63.1008L124.731 63.9023L124.464 65.8617C123.974 69.2461 122.549 73.2094 121.035 75.4359C116.27 82.65 109.145 79.4438 106.429 68.8453C105.227 64.0805 105.227 63.9023 107.231 63.3234C109.012 62.7891 114.088 59.6719 114.623 58.8258C114.801 58.5586 115.959 59.1375 117.606 60.3398C119.12 61.4531 121.302 62.7 122.549 63.1008ZM129.095 80.6016C129.14 82.9172 127.982 85.9453 127.047 85.9453C126.824 85.9453 125.845 85.3664 124.776 84.6984L122.906 83.4516L124.019 82.3828C124.687 81.7594 125.889 80.2008 126.78 78.8648C128.16 76.7719 128.472 76.5492 128.739 77.3063C128.917 77.7516 129.095 79.2656 129.095 80.6016ZM126.602 94.0945L128.338 95.5195L112.797 107.053C104.292 113.377 97.0329 118.898 96.7657 119.255C95.7415 120.502 96.0532 122.728 97.3446 123.752C98.9923 125.044 99.7493 124.955 102.421 123.084C103.668 122.238 104.781 121.57 104.87 121.659C104.915 121.748 102.332 134.529 99.0368 150.07C95.7861 165.612 93.0696 179.016 93.0696 179.773C93.0696 181.598 94.4056 183.023 96.1423 183.023C99.0814 183.023 98.7251 184.226 106.251 148.289C111.372 123.841 113.376 114.98 113.955 114.623C114.356 114.312 115.87 113.154 117.339 112.085L120.011 110.037L120.234 139.027L120.456 167.972L121.525 168.818C122.95 169.976 124.509 169.887 125.8 168.551L126.913 167.482V136.177L126.958 104.871L129.229 103.223C130.476 102.288 131.589 101.62 131.678 101.665C131.723 101.754 133.103 107.187 134.662 113.777C137.69 126.558 138.046 127.359 140.629 127.359C142.143 127.359 143.835 125.712 143.835 124.287C143.835 123.663 143.524 122.016 143.167 120.68L142.544 118.275L147.042 112.219C149.491 108.923 151.673 106.029 151.851 105.851C152.341 105.272 164.409 114.445 164.142 115.158C163.83 116.004 147.665 137.557 147.353 137.602C147.175 137.602 146.952 136.978 146.774 136.266C146.596 135.286 146.106 134.707 145.082 134.306C143.39 133.549 142.188 133.95 140.985 135.509L140.095 136.711L143.791 152.119C145.839 160.58 147.398 167.571 147.309 167.66C147.22 167.749 141.431 170.065 134.484 172.781C126.824 175.765 121.481 178.08 121.035 178.659C120.367 179.416 120.234 180.441 120.234 184.76V189.97L115.246 191.93C110.971 193.622 110.17 194.112 109.813 195.136C109.19 196.873 109.947 198.698 111.506 199.455C112.708 200.034 113.198 199.901 119.165 197.541C122.638 196.116 125.8 194.691 126.112 194.29C126.468 193.845 126.78 191.707 126.913 188.234L127.136 182.845L130.699 181.42C135.196 179.55 135.374 179.55 135.107 181.376C135.018 182.133 134.306 187.388 133.593 193.043C132.302 202.884 129.808 218.916 129.318 220.519C129.095 221.276 127.804 221.32 110.437 221.32H91.7337L91.5111 220.296C90.7095 216.689 89.6407 209.475 89.8634 209.208C90.0415 209.074 92.9361 207.827 96.365 206.447C99.7493 205.111 102.911 203.641 103.356 203.241C104.648 202.083 104.47 199.767 103.045 198.654C102.377 198.12 101.531 197.719 101.085 197.719C100.684 197.719 97.79 198.743 94.6282 199.945C91.5111 201.192 88.8392 202.083 88.7056 201.949C88.3939 201.638 87.1025 191.663 86.1228 182.044C85.3212 173.805 84.7423 147.888 85.2767 140.541L85.5884 135.82L88.3048 133.727C91.3775 131.367 91.6446 131.145 92.0009 129.675C92.4017 128.25 91.422 126.602 89.9525 126.113C88.7056 125.667 87.1915 126.157 85.1876 127.627C84.2079 128.339 84.1634 128.295 83.7181 127.137C83.1392 125.623 83.1837 124.688 83.8517 123.441C84.3415 122.595 124.019 92.625 124.687 92.625C124.82 92.625 125.667 93.293 126.602 94.0945Z" fill="#0A375A"/>
</svg>
