<svg width="229" height="228" viewBox="0 0 229 228" fill="none" xmlns="http://www.w3.org/2000/svg">
<path d="M122.596 7.83746C112.13 10.1086 103.14 19.0593 101.038 29.3015L100.456 32.0625H96.0284C90.1692 32.0625 88.4249 32.6414 85.6071 35.4023C82.6999 38.2968 82.1185 40.3007 82.3868 46.2679C82.5657 49.964 82.8341 51.1218 83.997 53.5711C85.8755 57.6234 88.4696 60.2507 92.4503 62.2101C95.5364 63.7242 96.0731 63.8578 101.172 64.0804C105.645 64.3031 106.673 64.4812 107.076 65.1047C107.434 65.6836 107.434 66.1289 107.076 66.6632C106.673 67.3312 105.689 67.5093 101.932 67.6875C96.4757 67.9547 94.7314 68.6672 92.1819 71.5172C88.2907 75.9257 88.5144 81.4922 92.8081 85.7226C95.7601 88.7062 97.1466 89.0625 105.645 89.0625H112.577L111.906 91.3781C111.459 93.0257 111.191 96.7664 111.057 103.58L110.833 113.466L108.552 112.041C106.584 110.838 105.913 110.66 103.14 110.66C99.5171 110.705 97.9517 111.328 95.4917 113.866C92.8528 116.538 91.9136 121.748 93.5237 124.732C93.7474 125.133 94.463 127.226 95.1339 129.408L96.3415 133.371L96.6099 159.199C96.923 187.788 96.8782 187.387 100.143 195.002C107.747 212.815 127.561 223.591 146.525 220.252C163.521 217.312 176.492 205.378 181.277 188.412C182.172 185.205 182.217 183.825 182.395 164.276L182.53 143.48L187.539 144.771C193.667 146.33 194.337 146.33 195.679 144.949C197.155 143.524 197.066 142.366 195.277 138.448C192.369 132.169 190.401 124.554 189.82 117.518L189.507 113.688L191.967 112.575C196.529 110.482 199.705 106.029 200.241 100.997C200.554 97.8351 199.66 96.6773 196.395 96.1429C193.577 95.6976 191.162 94.05 190.267 91.9125C189.82 90.8882 189.641 88.5281 189.641 84.2086V77.9742L192.012 76.9054C196.529 74.857 199.705 70.3593 200.241 65.3718C200.554 62.2101 199.66 61.0523 196.395 60.5179C193.935 60.1172 191.43 58.6031 190.446 56.8664C190.088 56.2429 189.775 52.8586 189.596 47.8711C189.373 41.9484 189.015 38.9648 188.344 36.5156C184.274 21.5531 172.198 10.4203 157.214 7.79293C151.892 6.9023 126.845 6.9023 122.596 7.83746ZM159.898 15.7195C165.042 17.4117 168.799 19.7718 172.869 23.8242C176.983 27.9211 179.354 31.6617 180.964 36.7382C181.993 39.8109 182.172 41.414 182.44 48.7617C182.753 56.4211 182.887 57.4453 183.827 59.4492C185.168 62.2101 187.986 65.0601 190.446 66.1289C191.475 66.6187 192.325 67.1976 192.325 67.4648C192.325 68.2218 190.044 70.2257 188.612 70.7601C185.347 72.007 181.68 70.9382 178.683 67.9101C175.642 64.882 175.329 63.6797 175.329 54.15V46.3125H171.706H168.083L168.262 55.5304L168.396 64.7929L169.827 67.7765C171.706 71.7843 174.3 74.4562 178.146 76.3711C179.846 77.2172 181.501 77.9297 181.859 77.9297C182.261 77.9297 182.44 79.7109 182.574 85.3664C182.708 92.2242 182.798 93.0257 183.827 95.0742C185.213 97.8351 188.031 100.685 190.446 101.754C191.475 102.244 192.325 102.823 192.325 103.09C192.325 103.847 190.044 105.851 188.612 106.385C185.347 107.632 181.68 106.563 178.683 103.535C175.642 100.507 175.329 99.3047 175.329 89.775V81.9375H171.706H168.083L168.262 91.1554L168.396 100.418L169.827 103.402C171.706 107.409 174.3 110.081 178.146 111.996C179.846 112.842 181.501 113.555 181.814 113.555C182.172 113.555 182.485 114.846 182.664 117.696C183.066 122.55 184.319 129.23 185.795 133.861C186.376 135.687 186.779 137.156 186.689 137.156C186.6 137.156 182.351 136.132 177.341 134.885L168.172 132.614V124.376V116.137L164.594 112.486L161.016 108.834V102.511V96.1875H157.438H153.86V102.199V108.211L150.237 110.037L146.569 111.862L146.838 102.778C147.106 92.1351 147.867 88.3054 151.534 80.3789C156.633 69.2015 157.438 64.5703 157.438 45.7336V32.0625H153.905H150.371L150.192 47.5148C150.013 62.4328 149.924 63.1898 148.85 67.2422C148.224 69.6023 146.704 73.6992 145.451 76.3711C140.308 87.6375 139.547 92.1351 139.547 111.373V125.489L134.762 126.647C132.123 127.315 128.41 128.116 126.487 128.473C124.43 128.829 122.015 129.63 120.494 130.432L118.034 131.768L118.168 112.976L118.347 94.1836L119.555 90.6211C121.388 85.1882 123.58 81.8484 129.439 75.7476C136.908 67.9101 139.86 63.1007 142.052 54.9515C142.768 52.3687 142.902 50.2312 142.902 41.8593V31.8398L141.694 29.5687C139.905 26.1843 138.563 24.8039 135.433 23.1117L132.615 21.5976L122.82 21.375L113.025 21.1523L114.858 19.5046C115.887 18.5695 117.721 17.3226 118.973 16.6992C123.58 14.3836 124.698 14.25 141.113 14.3836C156.275 14.5171 156.32 14.5171 159.898 15.7195ZM131.675 29.1234C132.481 29.4796 133.733 30.5039 134.449 31.439L135.746 33.1312L135.701 42.4828C135.701 51.4336 135.611 52.057 134.493 55.4414C132.704 60.7851 130.468 64.125 124.609 70.3148C121.657 73.3875 118.392 77.2617 117.318 78.9093L115.35 81.9375H107.076C98.8909 81.9375 98.8015 81.9375 97.728 80.8242C96.3862 79.5328 96.2968 77.5289 97.4597 76.1039C98.2647 75.1242 98.7567 75.0351 103.453 74.7679C108.015 74.5898 108.82 74.4117 110.386 73.3875C113.159 71.5617 114.277 69.3797 114.277 65.8617C114.277 63.457 114.053 62.6554 113.069 61.1414C110.967 57.9797 109.312 57.3117 102.916 57C96.3862 56.6882 94.8208 56.1539 92.1819 53.1703C90.1245 50.8101 89.4536 48.7171 89.4536 44.5757C89.4536 41.7703 89.5878 41.2359 90.5718 40.3007C91.6005 39.232 91.8241 39.1875 98.3989 39.1875C104.974 39.1875 105.197 39.1429 106.226 38.0742C106.942 37.4062 107.344 36.4711 107.344 35.6695C107.344 32.9086 109.044 30.2367 111.593 29.1234C113.561 28.2773 129.618 28.2773 131.675 29.1234ZM158.869 116.984L161.016 119.077V127.938C161.016 138.848 160.524 138.091 169.201 140.229L175.373 141.698L175.239 162.94C175.105 180.93 174.971 184.493 174.345 186.586C172.913 191.351 171.661 194.156 169.514 197.407C158.869 213.705 137.4 218.515 120.896 208.406C112.801 203.463 107.523 196.249 104.795 186.586C104.392 185.161 104.034 181.42 103.9 177.546L103.677 171H107.3H110.922V175.275C110.922 180.975 111.504 182.712 114.277 185.517C117.318 188.545 118.973 188.946 126.934 188.723C133.062 188.59 133.196 188.545 136.506 186.898C140.576 184.938 143.081 182.355 145.049 178.214C146.435 175.319 146.48 175.052 146.48 169.219C146.48 163.43 146.435 163.118 145.093 160.312C144.333 158.709 143.304 156.928 142.812 156.305L141.873 155.236L143.752 153.143C146.614 149.937 147.33 146.508 146.077 141.832C145.317 138.982 144.288 136.978 142.41 134.618C141.56 133.594 140.889 132.659 140.889 132.569C140.889 132.436 141.739 132.213 142.768 132.035C143.752 131.857 145.093 131.234 145.675 130.655C146.614 129.719 146.704 129.274 146.704 124.732V119.789L151.534 117.384C154.173 116.048 156.409 114.935 156.543 114.935C156.633 114.891 157.706 115.826 158.869 116.984ZM104.75 118.052C105.913 118.676 108.462 124.153 109.67 128.606C110.475 131.501 110.654 133.861 110.878 143.524C111.146 154.969 111.146 155.058 112.219 155.904C113.651 157.062 115.663 156.973 116.96 155.637C118.034 154.612 118.079 154.256 118.079 149.58C118.079 143.168 118.571 141.52 121.433 138.715C125.95 134.173 131.675 134.173 136.193 138.715C139.592 142.055 140.576 146.419 138.429 148.512C137.4 149.58 137.043 149.625 132.391 149.625C127.74 149.625 127.382 149.669 126.353 150.738C124.117 152.965 125.682 156.75 128.858 156.75C132.928 156.75 137.892 160.357 139.011 164.142C139.682 166.502 139.682 171.935 139.011 174.295C138.429 176.255 134.627 180.441 133.062 180.886C132.212 181.109 132.167 180.93 132.346 177.368C132.57 172.113 131.854 169.976 129.081 167.215C125.906 164.098 124.922 163.875 113.427 163.875H103.766V150.115C103.766 134.93 103.408 131.412 101.038 124.598C100.009 121.57 99.8302 120.546 100.188 119.611C100.859 117.874 103.006 117.117 104.75 118.052ZM124.117 172.113C125.101 173.048 125.235 173.583 125.235 176.344C125.235 179.105 125.101 179.639 124.117 180.574C123.446 181.287 122.507 181.687 121.657 181.687C120.807 181.687 119.868 181.287 119.197 180.574C118.168 179.594 118.079 179.149 118.079 175.23V171H120.539C122.596 171 123.222 171.178 124.117 172.113Z" fill="#0A375A"/>
<path d="M110.922 35.625V39.1875H114.5H118.078V35.625V32.0625H114.5H110.922V35.625Z" fill="#0A375A"/>
<path d="M150.281 128.25V131.812H153.859H157.437V128.25V124.688H153.859H150.281V128.25Z" fill="#0A375A"/>
<path d="M153.859 142.5V146.062H157.437H161.016V142.5V138.938H157.437H153.859V142.5Z" fill="#0A375A"/>
<path d="M150.281 156.75V160.312H153.859H157.437V156.75V153.188H153.859H150.281V156.75Z" fill="#0A375A"/>
<path d="M164.594 156.75V160.312H168.172H171.75V156.75V153.188H168.172H164.594V156.75Z" fill="#0A375A"/>
<path d="M157.438 171V174.562H161.016H164.594V171V167.438H161.016H157.438V171Z" fill="#0A375A"/>
<path d="M150.281 185.25V188.812H153.859H157.437V185.25V181.688H153.859H150.281V185.25Z" fill="#0A375A"/>
<path d="M164.594 185.25V188.812H168.172H171.75V185.25V181.688H168.172H164.594V185.25Z" fill="#0A375A"/>
<path d="M114.5 199.5V203.062H118.078H121.656V199.5V195.938H118.078H114.5V199.5Z" fill="#0A375A"/>
<path d="M128.812 199.5V203.062H132.391H135.969V199.5V195.938H132.391H128.812V199.5Z" fill="#0A375A"/>
<path d="M143.125 199.5V203.062H146.703H150.281V199.5V195.938H146.703H143.125V199.5Z" fill="#0A375A"/>
<path d="M157.438 199.5V203.062H161.016H164.594V199.5V195.938H161.016H157.438V199.5Z" fill="#0A375A"/>
<path d="M51.033 61.2305C43.1164 62.9672 35.5129 68.8453 31.8453 76.1484C30.0115 79.8 28.6697 84.6539 28.625 87.593V89.0625H32.1137H35.6023L36.0496 85.9898C37.3914 77.4844 43.7426 70.5375 52.1064 68.3555C54.2086 67.8211 57.6078 67.6875 68.5211 67.6875H82.2969V64.125V60.5625L68.1186 60.607C57.7867 60.607 53.1352 60.7852 51.033 61.2305Z" fill="#0A375A"/>
<path d="M53.8502 75.2133C51.748 75.7477 47.9016 77.9742 46.6939 79.3992C44.9943 81.4031 43.3842 84.832 43.0711 87.0586L42.8027 89.0625H46.4256H50.0037L50.2721 87.5039C50.6299 85.5891 52.5084 83.318 54.4316 82.5609C55.5498 82.0711 58.949 81.9375 69.102 81.9375H82.2963V78.375V74.8125L68.7889 74.857C61.3195 74.9016 54.6105 75.0352 53.8502 75.2133Z" fill="#0A375A"/>
<path d="M28.625 99.75V103.312H32.2031H35.7812V99.75V96.1875H32.2031H28.625V99.75Z" fill="#0A375A"/>
<path d="M42.9375 99.75V103.312H46.5156H50.0937V99.75V96.1875H46.5156H42.9375V99.75Z" fill="#0A375A"/>
</svg>
